<?xml version="1.0" encoding="utf-8"?>
<!-- Generator: Adobe Illustrator 25.2.1, SVG Export Plug-In . SVG Version: 6.00 Build 0)  -->
<svg version="1.1" id="Слой_1" xmlns="http://www.w3.org/2000/svg" xmlns:xlink="http://www.w3.org/1999/xlink" x="0px" y="0px"
	 viewBox="0 0 500 157" style="enable-background:new 0 0 500 157;" xml:space="preserve">
<style type="text/css">
	.st0{fill:none;}
	.st1{fill:#A6B03B;}
	.st2{fill:#67832D;}
	.st3{fill:#E8CE11;}
	.st4{fill:#FCE505;}
	.st5{fill:#121212;}
	.st6{fill:#FDFDFD;}
</style>
<path class="st0" d="M250.1,0.1c82.5,0,165,0,247.4-0.1c2,0,2.5,0.3,2.5,2.4c-0.1,50.4-0.1,100.9,0,151.3c0,2-0.3,2.5-2.4,2.5
	c-165.1-0.1-330.1-0.1-495.1,0c-2,0-2.5-0.3-2.5-2.4C0.1,103.4,0.1,52.9,0,2.5C0,0.5,0.3,0,2.4,0C85,0.1,167.5,0.1,250.1,0.1z
	 M9.5,69.4c-0.1,20.4,4.6,33.3,12.4,44.3c11.1,15.5,26.3,24.9,45.3,28c3.1,0.5,5.7-0.9,6.2-3.4c0.5-2.7-1.3-4.9-4.6-5.4
	c-13.8-2.2-25.6-8.3-34.9-18.8C18.4,96.8,14.4,76.5,21.9,55c7.7-22.4,24.5-35.8,48.2-38.8c23.3-3,42,5.8,56.2,24.5
	c4.5,6,7.3,12.9,9.3,20.2c0.8,3,2.8,4.1,5.4,3.4c2.8-0.7,3.9-3.1,2.9-6.8c-7-26.4-28.3-45.5-54.8-50c-16.5-2.8-32.3,0-46.5,8.8
	C21.1,29.7,10.4,49.3,9.5,69.4z M38.3,104.3c0.1,2.1,0.3,4.3,1.8,6c4.3,4.6,9.3,8.4,15.3,10.2c5.4,1.7,11.8-2.6,12.8-8.2
	c1.7-9.1,3.3-18.1,4.9-27.2c0.3-1.7,0.4-3.4-1.2-4.6c-1.8-1.3-3.5-0.8-5.2,0.2c-7.5,4.5-15,9-22.5,13.5
	C40.7,96.5,38.2,99.6,38.3,104.3z M51.5,31.3c-2.2,0.1-4.7,0.8-6.8,2.9c-2.2,2.2-4.5,4.4-6.7,6.7C31.3,48,33.7,57.3,43,60.4
	c8,2.7,16,5.5,24,8.3c1.7,0.6,3.3,1.1,4.9-0.4c1.7-1.6,1.2-3.2,0.5-5.1c-3.3-8.2-6.5-16.4-9.7-24.6C61,34.2,56.9,31.3,51.5,31.3z
	 M24.6,74.9c0.2,3.5,0.2,6.1,0.6,8.7c1.2,7.3,9,11.7,15.7,8.4c8.3-4.1,16.3-8.7,24.6-13.1c1.5-0.8,3-1.6,2.8-3.7
	c-0.2-2.1-1.6-3.1-3.3-3.7c-8.7-3.3-17.4-6.6-26.1-9.8c-3.1-1.2-6.1-0.6-8.8,1C25,65.8,24,70.4,24.6,74.9z M77.9,22.3
	c-8.8-0.3-14.6,6.6-12.3,13.8c2.7,8.7,5.8,17.4,8.7,26.1c0.6,1.8,1.3,3.3,3.4,3.6c2.1,0.3,3.1-1.2,4.1-2.8
	c4.6-7.7,9.3-15.4,13.8-23.2c4-6.8,0.1-15.1-7.7-16.4C84.3,22.9,80.7,22.6,77.9,22.3z M125.5,54.2c0.1-2.2-0.6-4.3-1.8-6
	c-2-3-4.1-5.9-6.3-8.8c-4.5-6.1-14.6-5.3-18.3,1.1c-4.6,8.1-9.4,16.2-14.2,24.3c-0.8,1.3-0.9,2.6,0.1,3.9c1,1.2,2.2,1.8,3.9,1.6
	c9.1-1.7,18.3-3.4,27.4-5.1C121.6,64,125.4,59.4,125.5,54.2z M183.8,111.6c-0.6-1.1-1.1-1.8-1.5-2.7c-3.8-8.7-7.6-17.4-11.4-26.1
	c-1.8-4.3-1.7-4.4-6.3-4.4c-1.6,0-3.2-0.1-4.8,0c-0.8,0.1-2-0.4-2.1,0.8c-0.1,1.2,1.1,1,1.8,1.2c4.3,1,4.6,1.3,4.3,5.7
	c-0.3,5.9-0.8,11.7-1.3,17.5c-0.3,3.6-0.5,7.2-0.8,10.9c-0.3,2.5-1.3,4.5-4.2,4.8c-0.7,0.1-1.7-0.2-1.7,0.9c0,1.3,1.1,1,1.9,1
	c3.8,0.1,7.6,0.1,11.5,0c0.7,0,1.9,0.4,1.9-1c0-1.1-1.1-0.8-1.7-0.9c-3.8-0.7-4.5-1.3-4.4-5.1c0.2-7.8,0.6-15.6,1-23.5
	c0.1-1.4,0.2-2.7,0.3-4.1c1,0.8,1.3,1.7,1.7,2.5c4.1,10,8.2,20,12.3,30c0.3,0.8,0.4,1.9,1.7,1.9c1.1,0,1.2-1,1.5-1.7
	c3.7-8.2,7.2-16.5,11-24.7c1.4-3,2.5-6.2,4.7-9.4c0,9.9,0,19.3,0,28.6c0,4.4,0,4.4-4.3,5.6c-0.6,0.2-1.1,0.2-1.1,1
	c0.1,0.7,0.7,0.8,1.2,0.8c4.9,0,9.9,0,14.8,0c0.6,0,1.2-0.2,1.1-1c-0.1-0.6-0.5-0.7-1-0.8c-4.9-1.6-5.1-1.7-5.2-6.8
	c-0.2-8.5-0.3-17-0.4-25.4c-0.1-4-0.2-6.1,5-6.8c0.5-0.1,1.2-0.2,1.2-0.9c0-0.9-0.8-1-1.4-1c-2.4,0-4.9,0.2-7.3-0.1
	c-1.9-0.2-2.9,0.6-3.6,2.2c-3.2,7-6.4,14-9.8,20.9C187.1,104.9,185.9,108.3,183.8,111.6z M302.7,110.7c-1-0.2-1.5-1-2.1-1.7
	c-7.1-8.5-14.5-16.7-21.3-25.4c-3.1-4.1-6.6-5.9-11.5-5.1c-0.2,0.1-0.4,0-0.6,0c-0.8,0.1-1.9-0.3-2,1c0,1,1.1,0.8,1.7,1.1
	c4,1.1,5.5,2.6,5.5,6.3c0,9.2,0.3,18.4-0.3,27.7c-0.2,2.9-1.4,4.5-4.3,4.9c-0.7,0.1-1.7,0-1.6,1.1c0.1,1.1,1.1,0.8,1.8,0.8
	c3.9,0,7.8,0,11.8,0c0.7,0,1.9,0.4,1.9-0.9c0-1-1.1-0.8-1.7-1c-3.6-0.6-4.4-1.5-4.5-5.2c-0.2-8.2-0.2-16.4-0.3-24.6
	c0-0.4,0.1-0.8,0.2-1.3c1.1,0.1,1.4,0.8,1.8,1.3c8.4,10.2,16.9,20.5,25.3,30.9c0.7,0.8,1.3,1.7,2.5,1.4c1.4-0.4,0.9-1.6,0.9-2.6
	c0.1-11.1,0.2-22.2,0.2-33.3c0-3,0.8-5.2,4.2-5.5c0.7-0.1,1.7-0.2,1.5-1.3c-0.2-0.8-1-0.6-1.6-0.6c-3.9,0-7.8-0.1-11.8,0
	c-0.8,0-2.2-0.6-2.4,0.7c-0.2,1.3,1.3,1,2.1,1.2c4.1,0.8,4.8,1.6,4.9,5.8c0.1,7.4,0.2,14.9,0.2,22.3
	C303.1,109.3,303.4,110.1,302.7,110.7z M216.5,100.2c-0.3,12,8.9,21.7,20.9,22c13,0.3,22.2-8.8,22.5-22.1
	c0.3-12.3-8.5-21.9-20.5-22.2C226.1,77.5,216.8,86.6,216.5,100.2z M472.9,121.1c4.6,0,9.4,0,14,0c0.9,0,2,0.2,2.3-1.1
	c0.7-2.7,1.4-5.4,2.1-8.1c0.2-0.7,0.1-1.1-0.6-1.3c-0.7-0.2-1,0.1-1.3,0.7c-0.4,0.8-1,1.6-1.3,2.5c-1.7,3.7-4.4,5.5-8.6,5
	c-2-0.2-4.1,0-6.2-0.1c-3.3-0.1-4.1-0.8-4.2-4.2c-0.1-4.1,0-8.2-0.1-12.3c0-1.4,0.4-2.1,1.9-2c2.1,0.1,4.1,0.1,6.2,0
	c2.9,0,4.9,1.1,5.4,4.1c0.1,0.6,0,1.4,1,1.3c1.2-0.1,0.8-1,0.9-1.7c0.1-3.2,0.1-6.3,0-9.5c0-0.7,0.5-1.9-0.7-2.1
	c-1.3-0.2-1.1,1.1-1.3,1.7c-0.6,2.6-2.2,3.7-4.8,3.7c-2.1,0-4.3-0.1-6.4,0c-1.8,0.1-2.2-0.6-2.2-2.2c0.1-2.9,0-5.8,0-8.7
	c0.1-6.8-1-5.7,5.9-6c5.3-0.3,9.7,0.3,11,6.6c0.2,0.7,0.6,1,1.2,0.8c0.8-0.1,0.7-0.7,0.7-1.3c-0.1-2.4-0.2-4.8-0.2-7.3
	c0-1.1-0.5-1.5-1.6-1.5c-8.8,0.1-17.7,0.1-26.6,0.1c-0.5,0-1.2-0.2-1.3,0.6c-0.2,0.9,0.6,1,1.2,1.2c4,1.3,4.3,1.6,4.3,5.9
	c0.1,9.2,0.1,18.5,0,27.7c0,4.4-0.4,4.8-4.9,5.4c-0.7,0.1-1.7-0.1-1.7,1c0,1.2,1.1,0.8,1.7,0.8C463.4,121.1,468.1,121.1,472.9,121.1
	z M133.3,121.2c4.8,0,9.5,0,14.3,0c0.8,0,1.8,0.3,2.1-0.8c0.7-2.8,1.5-5.6,2.2-8.3c0.2-0.6,0.1-1.1-0.7-1.3
	c-0.6-0.1-0.8,0.1-1.1,0.6c-0.3,0.7-0.7,1.3-1.1,2c-1.8,4-4.7,6.3-9.5,5.7c-2-0.3-4.1-0.2-6.2-0.1c-2.4,0.1-3.5-1.1-3.7-3.2
	c-0.2-2.4-0.2-4.8-0.2-7.2c-0.1-8.6,0-8.6,8.5-8c2.6,0.2,4.5,1.1,5,3.9c0.1,0.7,0.3,1.6,1.3,1.5c1.3-0.2,0.8-1.3,0.8-2
	c0.1-3,0.1-6,0-9c0-0.8,0.6-2.1-0.8-2.2c-1.2-0.1-1.1,1.1-1.2,1.8c-0.5,2.5-2.2,3.5-4.6,3.6c-2.1,0.1-4.3-0.1-6.4,0.1
	c-1.8,0.1-2.5-0.5-2.5-2.4c0.1-2.8,0.1-5.6,0.1-8.4c0-7.3-0.4-5.8,6.1-6.2c5.2-0.2,9.6,0.2,10.9,6.3c0,0.1,0.1,0.2,0.1,0.3
	c0.2,0.6,0.6,0.9,1.3,0.7c0.6-0.2,0.6-0.7,0.6-1.1c-0.1-2.5-0.2-5-0.3-7.6c-0.1-0.9-0.6-1.3-1.5-1.3c-8.8,0-17.7,0.1-26.5,0.1
	c-0.7,0-1.4-0.1-1.5,0.9c-0.1,0.7,0.6,1,1.1,1c3.6,0.2,4.3,2.6,4.3,5.7c0,9.5,0,19-0.1,28.5c0,3.6-0.8,4.4-4.4,4.8
	c-0.7,0.1-2-0.3-2,1c0,1.2,1.2,0.8,2,0.8C124.2,121.2,128.8,121.2,133.3,121.2z M344.5,95.2L344.5,95.2c0.1,3.2,0,6.6,0.1,9.8
	c0.1,3.6,0.6,7.2,2.6,10.4c3.8,6,9.7,6.9,16.1,6.6c8-0.4,13.3-5.5,14.2-13.4c0.8-7.5,0.2-15.1,0.5-22.6c0.2-3.7,0.9-4.6,4.3-5.5
	c0.7-0.2,1.8,0.1,1.6-1.1c-0.1-1.2-1.3-0.8-2-0.8c-3.8-0.1-7.7-0.1-11.5,0c-0.7,0-2-0.5-2.1,0.7c-0.1,1.3,1.2,0.9,1.9,1.1
	c2,0.5,4.2,0.8,4.5,3.5c0.8,9,1.5,18-0.6,26.9c-0.7,2.9-2.3,5.3-5.1,6.6c-7.3,3.4-18.1,1.2-18.9-11.6c-0.4-6.9-0.1-13.8-0.1-20.7
	c0-2.7,1.2-4.4,4-4.7c0.7-0.1,2,0.2,1.8-1.1c-0.2-1-1.2-0.6-1.9-0.6c-4.4,0-8.8,0-13.2,0c-0.7,0-1.7-0.4-1.8,0.7
	c-0.2,1.3,1.1,1.1,1.7,1.2c2.7,0.3,3.9,1.7,3.8,4.5C344.3,88.4,344.5,91.8,344.5,95.2z M436.7,77.8c-2.1-0.1-4.5,0.1-6.9,0.6
	c-8.1,1.8-14.2,6.4-16.9,14.3c-2.8,8.3-1.5,16.3,4.8,22.8c6.4,6.5,14.6,7,23.1,6.4c5.2-0.4,8.5-2.5,9.1-7.9c0.1-0.6,0.4-1.2,0.7-1.8
	c0.2-0.7,0.3-1.3-0.5-1.6c-0.7-0.3-1,0.2-1.3,0.7c-0.3,0.5-0.7,0.9-0.9,1.4c-5,10.5-20,8.3-24.9,1.7c-4.9-6.7-5.6-14.1-3.9-21.8
	c2.4-11,12-14.3,21.3-11.9c3.6,0.9,5.9,3.3,7.1,6.8c0.3,0.8,0.3,2.2,1.6,1.8c1.3-0.4,0.5-1.6,0.4-2.4c-0.2-2-0.4-4.1-0.6-6.1
	c-0.1-1.3-0.6-1.7-1.8-1.9C443.9,78.3,440.5,77.8,436.7,77.8z M95.2,121.2c4.4,0,8.7,0.1,13.2,0c1,0,2.1,0.1,2.5-1.2
	c0.8-2.7,1.6-5.5,2.4-8.3c0.1-0.4,0.2-1-0.3-1.2c-0.6-0.3-1.1-0.2-1.5,0.3c-0.3,0.6-0.7,1.1-0.9,1.7c-2,4.3-4.9,7.3-10.1,6.4
	c-1.1-0.2-2.2-0.1-3.4-0.1c-4.2-0.1-4.8-0.5-4.8-4.6c-0.1-9.5-0.1-19,0-28.5c0-4,0.3-4.3,4.2-5.3c0.7-0.2,1.7-0.1,1.5-1.2
	c-0.2-0.9-1-0.7-1.6-0.7c-4.6-0.1-9.3-0.1-14-0.1c-0.6,0-1.5-0.2-1.5,0.8c-0.1,1.1,0.8,1.2,1.6,1.2c3.1,0.2,4.1,2,4.1,4.8
	c0,9.7,0.1,19.4,0,29.1c0,3.9-0.6,4.4-4.4,5c-0.7,0.1-1.7-0.2-1.8,0.8c-0.1,1.3,1.1,1,1.9,1C86.4,121.2,90.8,121.2,95.2,121.2z
	 M325.4,78.6c-2.2,0-4.5-0.1-6.7,0c-0.7,0-1.7-0.4-1.8,0.7c-0.2,1.1,1,1.1,1.6,1.1c3.2,0.2,4.2,2.2,4.2,5.1
	c-0.1,10.4-0.1,20.9-0.2,31.3c0,1.8-0.3,3.7-0.6,5.5c-0.4,2.9-2.1,5.1-4.3,6.9c-0.6,0.5-2.2,0.4-1.5,1.8c0.8,1.5,1.8,0.3,2.6-0.1
	c5.9-3.1,9-8.2,9.4-14.8c0.6-9.9,0.1-19.7,0.3-29.6c0.1-3.7-0.4-5.6,4.4-6.3c0.6-0.1,1.2-0.2,1.1-1c-0.1-1-0.8-0.8-1.5-0.8
	C330.1,78.6,327.8,78.6,325.4,78.6z M399.2,99.9c0-4.5,0-9.1,0-13.7c0-4.4,0.4-4.8,4.6-5.9c0.6-0.2,1.5,0.1,1.5-0.9
	c0-1.2-1-0.9-1.6-0.9c-4.6-0.1-9.3-0.1-13.9,0c-0.7,0-1.7-0.3-1.7,0.9c0,0.9,0.9,0.8,1.5,1c3.9,1.1,4.1,1.3,4.2,5.3
	c0,9.6,0,19.1,0,28.8c0,3.9-0.3,4.1-4.1,4.8c-0.6,0.1-1.5,0-1.5,0.9c-0.1,1.2,1,0.9,1.6,0.9c4.5,0.1,9.1,0.1,13.7,0
	c0.7,0,1.9,0.5,1.9-0.9c0-1.1-1.1-0.8-1.7-0.9c-3.6-0.6-4.3-1.2-4.3-4.9C399.1,109.6,399.2,104.8,399.2,99.9z M80.8,124.7
	c-2.6,4.4-5.5,8.1-5.3,12.9c0.2,4.5,4.5,6.8,8.4,4.6c2.6-1.5,3.7-5.3,2.4-8.6C85,130.5,82.8,127.9,80.8,124.7z M283.1,136.8
	c-1.1-1.4-2.2-2.6-3-4c-0.6-1-1.4-0.9-2.2-0.7c-0.8,0.2-0.6,1.1-0.6,1.6c-0.1,2.1,0,4.1,0,6.2c0,0.9-0.1,1.7,1.2,1.7
	c1.3,0,0.9-0.9,1-1.6c0.1-1.1-0.2-2.3,0.3-3.6c1.3,1.6,2.5,2.9,3.4,4.4c0.6,1,1.4,0.8,2.2,0.7c0.9-0.2,0.6-1,0.6-1.6
	c0.1-2.1,0-4.3,0.1-6.4c0-0.8-0.1-1.5-1.1-1.5c-1.2-0.1-1.3,0.6-1.3,1.6C283.5,134.6,283.8,135.7,283.1,136.8z M216.7,136.9
	c0-2.9-2-4.8-4.9-4.8c-2.9,0-5.2,2.2-5.2,5c0.1,2.6,2.4,4.7,5.2,4.6C214.8,141.7,216.7,139.8,216.7,136.9z M272.8,137.1
	c0.1-3.1-1.8-5-5-5c-2.9,0-4.8,2-4.8,4.9c0,2.7,1.9,4.6,4.7,4.7C270.8,141.8,272.8,139.9,272.8,137.1z M115.8,141.3
	c0.8,0.4,1.9,0.6,2.4,0c1.8-2,3.3-1.7,5,0c0.5,0.5,1.5,0.4,2.1,0.1c0.5-0.4-0.1-1-0.3-1.5c-0.8-2.1-1.7-4.3-2.4-6.5
	c-0.3-1-0.9-1.5-2-1.5c-1,0.1-1.5,0.3-1.8,1.2C117.9,136,116.9,138.6,115.8,141.3z M158.5,141.4c1,0.3,1.7,0.5,2.2,0
	c1.8-1.9,3.5-1.9,5.4,0c0.4,0.4,1.3,0.4,1.8,0c0.6-0.4,0.1-1-0.1-1.5c-0.8-2.1-1.6-4.1-2.4-6.2c-0.4-1-0.8-1.8-2.1-1.7
	c-1.2,0.1-1.6,0.8-1.9,1.7C160.3,136.2,159.4,138.7,158.5,141.4z M240.1,135.7c0-0.6,0-1.1,0-1.7c-0.1-0.9,0.3-2-1.2-1.9
	c-1.5,0.1-0.8,1.2-0.9,1.8c-0.1,1.2,0,2.4-0.1,3.6c-0.1,1.4-0.8,2.2-2.3,2.3c-1.5,0-1.8-1.1-2-2.2c-0.1-1.5-0.1-3-0.1-4.5
	c0-0.9-0.4-1.1-1.2-1.1c-0.8,0-1.2,0.2-1.2,1.1c0.1,1.7-0.1,3.5,0.1,5.3c0.2,1.8,1.6,3,3.4,3.2C237.7,142,240.5,141.3,240.1,135.7z
	 M293.7,141.7c2.4-0.1,3.9-0.6,4.3-2.6c0.4-2.1-1.1-2.7-2.7-3.2c-0.4-0.1-0.9-0.3-1.3-0.4c-0.4-0.2-1-0.3-0.9-0.8
	c0.2-0.6,0.7-0.7,1.3-0.6c0.6,0.2,1.1,0.3,1.6,0.6c0.7,0.4,1,0,1.3-0.5c0.3-0.6,0.1-1.1-0.4-1.3c-1.5-0.8-3-1-4.5-0.3
	c-1.1,0.5-2,1.3-1.8,2.8c0.2,1.9,1.7,2.1,3,2.7c0.7,0.3,2.4-0.2,2,1.2c-0.4,1.4-1.8,0.7-2.9,0.4c-0.3-0.1-0.5-0.2-0.7-0.4
	c-0.7-0.6-1,0.1-1.3,0.4c-0.6,0.6-0.1,0.9,0.4,1.2C292,141.5,293.1,141.8,293.7,141.7z M199.2,141.7c1.7-0.1,3.4-0.4,3.7-2.5
	c0.4-2.1-1-2.8-2.6-3.2c-0.4-0.1-0.8-0.3-1.3-0.4c-0.5-0.2-1.3-0.1-1.1-0.9c0.2-0.8,1-0.7,1.6-0.6c0.4,0.1,1,0.2,1.3,0.4
	c0.8,0.6,1.2,0.1,1.5-0.5c0.6-1-0.3-1.1-0.8-1.3c-1.6-0.8-3.2-0.9-4.8,0.1c-1.1,0.6-1.6,1.6-1.3,2.8c0.3,2,2,2.2,3.5,2.6
	c0.7,0.2,1.8,0.1,1.7,1c-0.2,1.2-1.5,0.8-2.4,0.8c-0.4-0.1-0.9-0.3-1.2-0.6c-0.7-0.6-1.1-0.2-1.5,0.4c-0.7,1,0.3,1.1,0.7,1.3
	C197.1,141.7,198.1,141.7,199.2,141.7z M129.6,136.8c0,1.2,0,2.4,0,3.6c0,0.8,0.3,1.2,1.2,1.2c0.7,0,1.4-0.1,1.3-1
	c-0.3-2.1,0.7-2.6,2.5-2.4c1.9,0.2,2.7-1.1,2.9-2.6c0.2-1.7-0.7-3-2.5-3.5c-4.2-1.1-5.4-0.1-5.4,4.1
	C129.6,136.5,129.6,136.7,129.6,136.8z M108.5,141.7c0.6-0.1,1.1,0.1,1.5-0.2c0.9-0.6,2.6-0.8,2.2-2.1c-0.6-1.7-1.7-0.3-2.6,0.1
	c-1.2,0.6-2.3,0.3-3.1-1c-0.8-1.2-0.8-2.5,0.1-3.6c1-1.2,2.3-1.2,3.5-0.3c0.9,0.6,1.7,0.5,2.1-0.2c0.4-0.8-0.4-1.3-1.1-1.7
	c-2-1.2-3.9-1.1-5.7,0.3c-1.9,1.4-2.4,3.4-1.6,5.4C104.5,140.6,106.3,141.7,108.5,141.7z M247,137.5c0,0.7-0.1,1.2,0,1.6
	c0.3,0.9-0.8,2.5,1.1,2.6c2.1,0.1,1.1-1.5,1.2-2.4c0.2-0.7,0-1.5,0.1-2.2c0-1.3-0.5-3,1.8-2.7c0.7,0.1,0.7-0.7,0.7-1.2
	c0-0.6-0.3-0.8-0.8-0.8c-2,0-3.9,0-5.9,0c-0.6,0-0.7,0.4-0.7,1c0,0.4,0,1.2,0.5,1.1C248.2,134,246.6,136.4,247,137.5z M150.8,137.5
	c0,1,0,1.7,0,2.5c0,0.8-0.1,1.7,1.2,1.7c1.3,0,1.2-0.9,1.2-1.7c0-1-0.1-1.8,0-2.8c0.1-1.3-0.7-3.2,1.9-2.9c0.8,0.1,0.6-0.8,0.6-1.3
	c0.1-0.6-0.2-0.8-0.8-0.8c-1.8,0-3.7,0-5.6,0c-0.7,0-1,0.3-1,1c0,0.4,0,1.1,0.6,1.1C152,134.1,150.3,136.5,150.8,137.5z
	 M174.5,135.9c0-0.6,0.1-1.1,0-1.7c-0.1-0.9,0.5-2.2-1.3-2.1c-1.6,0.1-1.1,1.2-1.1,2c-0.1,2,0,3.9-0.1,5.8c-0.1,1.1,0.2,1.7,1.5,1.7
	c1.2-0.1,2.4-0.1,3.6,0c0.7,0,1.1-0.2,1-0.9c-0.1-0.5-0.2-1-0.8-0.9C173.7,140.5,174.5,137.9,174.5,135.9z M224.1,141.6
	c1,0,1.6,0,2.3,0c0.7,0,1-0.3,1-1c0-0.6-0.3-0.9-0.8-0.8c-3.8,0.7-3-2-3-4c0-0.8,0-1.7,0-2.5c0-0.7-0.1-1.2-1.1-1.2
	c-0.8,0.1-1.1,0.4-1.1,1.2c0,1.7,0.2,3.5-0.1,5.3C221,141.1,221.7,142.3,224.1,141.6z M258.6,136.8c0-1.2,0-2.4,0-3.6
	c0-0.8-0.4-1.1-1.2-1.1c-0.8,0-1.1,0.4-1.1,1.2c0,2.4,0.1,4.9,0,7.3c0,0.8,0.3,1.1,1.2,1.1c0.8,0,1.2-0.3,1.2-1.2
	C258.6,139.3,258.6,138.1,258.6,136.8z M144,136.8c0-1.2,0-2.4,0-3.6c0-0.8-0.2-1.2-1.1-1.2c-0.8,0-1.2,0.4-1.2,1.2
	c0,2.4,0,4.8,0,7.2c0,0.8,0.3,1.1,1.1,1.1c0.8,0,1.1-0.4,1.1-1.2C144,139.2,144,138.1,144,136.8z"/>
<path class="st1" d="M183.8,111.6c2.1-3.3,3.3-6.7,4.8-9.9c3.3-6.9,6.6-13.9,9.8-20.9c0.7-1.6,1.7-2.4,3.6-2.2
	c2.4,0.2,4.9,0,7.3,0.1c0.7,0,1.5,0,1.4,1c0,0.7-0.7,0.8-1.2,0.9c-5.2,0.7-5,2.8-5,6.8c0.1,8.5,0.2,17,0.4,25.4
	c0.1,5.1,0.2,5.2,5.2,6.8c0.4,0.2,1,0.3,1,0.8c0.1,0.7-0.5,1-1.1,1c-4.9,0-9.9,0-14.8,0c-0.6,0-1.2-0.1-1.2-0.8
	c-0.1-0.7,0.6-0.8,1.1-1c4.3-1.2,4.3-1.2,4.3-5.6c0-9.3,0-18.6,0-28.6c-2.2,3.2-3.4,6.4-4.7,9.4c-3.8,8.2-7.4,16.5-11,24.7
	c-0.3,0.7-0.3,1.7-1.5,1.7c-1.3,0-1.3-1.1-1.7-1.9c-4.1-10-8.2-20-12.3-30c-0.3-0.8-0.8-1.7-1.7-2.5c-0.1,1.4-0.3,2.7-0.3,4.1
	c-0.3,7.8-0.7,15.6-1,23.5c-0.1,3.9,0.6,4.4,4.4,5.1c0.7,0.1,1.7-0.2,1.7,0.9c0,1.3-1.2,0.9-1.9,1c-3.8,0.1-7.6,0.1-11.5,0
	c-0.8,0-1.9,0.3-1.9-1c0-1,1.1-0.8,1.7-0.9c2.9-0.2,3.9-2.2,4.2-4.8c0.4-3.6,0.6-7.2,0.8-10.9c0.4-5.8,1-11.7,1.3-17.5
	c0.3-4.4-0.1-4.6-4.3-5.7c-0.7-0.2-2,0.1-1.8-1.2c0.1-1.2,1.3-0.7,2.1-0.8c1.6-0.1,3.2-0.1,4.8,0c4.5,0,4.4,0.1,6.3,4.4
	c3.8,8.7,7.6,17.4,11.4,26.1C182.7,109.8,183.2,110.5,183.8,111.6z"/>
<path class="st1" d="M302.7,110.7c0.7-0.6,0.4-1.4,0.4-2.1c-0.1-7.4-0.1-14.9-0.2-22.3c-0.1-4.1-0.8-4.9-4.9-5.8
	c-0.8-0.2-2.3,0.1-2.1-1.2c0.2-1.2,1.5-0.7,2.4-0.7c3.9-0.1,7.8,0,11.8,0c0.6,0,1.5-0.2,1.6,0.6c0.2,1.1-0.7,1.2-1.5,1.3
	c-3.4,0.3-4.1,2.5-4.2,5.5c0,11.1-0.1,22.2-0.2,33.3c0,1,0.5,2.2-0.9,2.6c-1.2,0.3-1.8-0.6-2.5-1.4c-8.4-10.3-16.8-20.5-25.3-30.9
	c-0.4-0.6-0.8-1.3-1.8-1.3c-0.1,0.4-0.2,0.9-0.2,1.3c0.1,8.2,0.1,16.4,0.3,24.6c0.1,3.7,1,4.5,4.5,5.2c0.7,0.1,1.7-0.1,1.7,1
	c0,1.3-1.2,0.9-1.9,0.9c-3.9,0.1-7.8,0.1-11.8,0c-0.7,0-1.7,0.3-1.8-0.8c-0.1-1.1,0.9-1,1.6-1.1c2.9-0.3,4.1-2,4.3-4.9
	c0.7-9.2,0.3-18.4,0.3-27.7c0-3.6-1.5-5.2-5.5-6.3c-0.7-0.2-1.7-0.1-1.7-1.1c0-1.3,1.2-0.8,2-1c0.2,0,0.4,0,0.6,0
	c5-0.8,8.3,1,11.5,5.1c6.8,8.7,14.2,17,21.3,25.4C301.2,109.7,301.7,110.5,302.7,110.7z"/>
<path class="st1" d="M216.5,100.2c0.3-13.6,9.7-22.7,22.9-22.3c11.9,0.3,20.8,9.9,20.5,22.2c-0.3,13.3-9.5,22.3-22.5,22.1
	C225.4,121.9,216.2,112.2,216.5,100.2z M253.3,101.7c0.1-5.3-0.8-10-3.3-14.3c-4.8-8.5-16.8-10.4-23-2.4c-2.5,3.2-3.6,6.9-3.9,10.9
	c-0.6,7.4,0.9,14.2,6.1,19.9c5.4,5.8,18.1,5.9,21.9-3.3C252.6,108.8,253.4,105.2,253.3,101.7z"/>
<path class="st2" d="M472.9,121.1c-4.8,0-9.5,0-14.3,0c-0.6,0-1.7,0.4-1.7-0.8c0-1.1,1-0.8,1.7-1c4.4-0.6,4.9-1,4.9-5.4
	c0.1-9.2,0.1-18.5,0-27.7c0-4.3-0.3-4.6-4.3-5.9c-0.6-0.2-1.3-0.3-1.2-1.2c0.2-0.8,0.8-0.6,1.3-0.6c8.8-0.1,17.7-0.1,26.6-0.1
	c1.1,0,1.6,0.3,1.6,1.5c0.1,2.4,0.2,4.8,0.2,7.3c0,0.6,0.1,1.2-0.7,1.3c-0.7,0.1-1.1-0.2-1.2-0.8c-1.3-6.2-5.7-6.8-11-6.6
	c-6.9,0.3-5.8-0.8-5.9,6c-0.1,2.9,0.1,5.8,0,8.7c-0.1,1.6,0.4,2.4,2.2,2.2c2.1-0.2,4.3-0.1,6.4,0c2.6,0.1,4.2-1.1,4.8-3.7
	c0.2-0.7-0.1-2,1.3-1.7c1.2,0.2,0.7,1.3,0.7,2.1c0.1,3.2,0.1,6.3,0,9.5c0,0.7,0.3,1.6-0.9,1.7c-1,0.1-0.9-0.8-1-1.3
	c-0.6-3-2.6-4.1-5.4-4.1c-2.1,0-4.1,0.1-6.2,0c-1.5-0.1-1.9,0.6-1.9,2c0.1,4.1-0.1,8.2,0.1,12.3c0.1,3.4,0.9,4.1,4.2,4.2
	c2.1,0.1,4.1-0.2,6.2,0.1c4.2,0.5,6.9-1.3,8.6-5c0.4-0.8,0.9-1.6,1.3-2.5c0.3-0.6,0.6-0.9,1.3-0.7c0.7,0.2,0.8,0.6,0.6,1.3
	c-0.7,2.7-1.4,5.4-2.1,8.1c-0.3,1.3-1.4,1.1-2.3,1.1C482.3,121.1,477.6,121.1,472.9,121.1z"/>
<path class="st1" d="M133.3,121.2c-4.6,0-9.1,0-13.7,0c-0.7,0-2,0.4-2-0.8c0-1.2,1.2-0.8,2-1c3.6-0.4,4.4-1.2,4.4-4.8
	c0.1-9.5,0-19,0.1-28.5c0-3-0.7-5.4-4.3-5.7c-0.6-0.1-1.2-0.2-1.1-1c0.1-0.9,0.8-0.9,1.5-0.9c8.8,0,17.7,0,26.5-0.1
	c0.9,0,1.4,0.3,1.5,1.3c0.1,2.5,0.2,5,0.3,7.6c0,0.4,0,1-0.6,1.1c-0.7,0.2-1.1-0.1-1.3-0.7c-0.1-0.1-0.1-0.2-0.1-0.3
	c-1.3-6.2-5.7-6.6-10.9-6.3c-6.5,0.3-6.2-1.1-6.1,6.2c0,2.8,0.1,5.6-0.1,8.4c-0.1,1.9,0.7,2.5,2.5,2.4c2.1-0.1,4.3-0.1,6.4-0.1
	c2.4-0.1,4.1-1,4.6-3.6c0.2-0.7,0.1-2,1.2-1.8c1.5,0.2,0.8,1.5,0.8,2.2c0.1,3,0.1,5.9,0,9c0,0.7,0.5,1.8-0.8,2
	c-1,0.1-1.2-0.8-1.3-1.5c-0.4-2.9-2.4-3.8-5-3.9c-8.5-0.6-8.5-0.6-8.5,8c0,2.4,0.1,4.9,0.2,7.2c0.2,2.1,1.3,3.4,3.7,3.2
	c2.1-0.1,4.1-0.2,6.2,0.1c4.8,0.7,7.6-1.6,9.5-5.7c0.3-0.7,0.7-1.3,1.1-2c0.2-0.4,0.6-0.7,1.1-0.6c0.7,0.2,0.8,0.7,0.7,1.3
	c-0.7,2.8-1.4,5.6-2.2,8.3c-0.3,1.2-1.3,0.8-2.1,0.8C142.8,121.2,138.1,121.2,133.3,121.2z"/>
<path class="st2" d="M344.5,95.2c0-3.5-0.1-6.9,0-10.4c0.1-2.7-1.1-4.1-3.8-4.5c-0.7-0.1-2,0.1-1.7-1.2c0.2-1.1,1.2-0.7,1.8-0.7
	c4.4-0.1,8.8,0,13.2,0c0.7,0,1.7-0.3,1.9,0.6c0.2,1.3-1.1,1.1-1.8,1.1c-2.9,0.3-4,2-4,4.7c0,6.9-0.3,13.8,0.1,20.7
	c0.8,12.9,11.6,15.1,18.9,11.6c2.8-1.3,4.4-3.6,5.1-6.6c2-9,1.3-18,0.6-26.9c-0.2-2.6-2.5-3-4.5-3.5c-0.7-0.2-2,0.2-1.9-1.1
	c0.1-1.2,1.3-0.7,2.1-0.7c3.8-0.1,7.7-0.1,11.5,0c0.7,0,1.9-0.4,2,0.8c0.1,1.1-1,0.8-1.6,1.1c-3.4,0.9-4.1,1.8-4.3,5.5
	c-0.3,7.6,0.3,15.1-0.5,22.6c-0.9,7.9-6.2,13-14.2,13.4c-6.4,0.3-12.4-0.5-16.1-6.6c-2-3.2-2.5-6.8-2.6-10.4c-0.1-3.2,0-6.5,0-9.8
	C344.5,95.2,344.5,95.2,344.5,95.2z"/>
<path class="st2" d="M436.7,77.8c3.8-0.1,7.2,0.4,10.6,1c1.2,0.2,1.7,0.6,1.8,1.9c0.1,2.1,0.4,4.1,0.6,6.1c0.1,0.8,0.9,2-0.4,2.4
	c-1.3,0.4-1.3-1-1.6-1.8c-1.2-3.5-3.5-5.9-7.1-6.8c-9.4-2.4-18.9,1-21.3,11.9c-1.7,7.8-1,15.1,3.9,21.8c4.8,6.6,19.9,8.8,24.9-1.7
	c0.2-0.5,0.6-0.9,0.9-1.4c0.3-0.5,0.6-1,1.3-0.7c0.8,0.3,0.7,1,0.5,1.6c-0.2,0.6-0.6,1.2-0.7,1.8c-0.6,5.5-3.8,7.5-9.1,7.9
	c-8.6,0.7-16.7,0.2-23.1-6.4c-6.3-6.5-7.7-14.4-4.8-22.8c2.7-8,8.7-12.5,16.9-14.3C432.1,77.9,434.5,77.7,436.7,77.8z"/>
<path class="st1" d="M95.2,121.2c-4.4,0-8.7,0-13.2,0c-0.7,0-2,0.3-1.9-1c0.1-1,1.1-0.7,1.8-0.8c3.9-0.6,4.4-1.1,4.4-5
	c0.1-9.7,0-19.4,0-29.1c0-2.9-1-4.7-4.1-4.8c-0.7-0.1-1.6-0.1-1.6-1.2c0.1-1,1-0.8,1.5-0.8c4.6,0,9.3,0,14,0.1
	c0.6,0,1.5-0.2,1.6,0.7c0.2,1.1-0.8,1-1.5,1.2c-3.9,1-4.1,1.3-4.2,5.3c-0.1,9.5-0.1,19,0,28.5c0,4.1,0.6,4.5,4.8,4.6
	c1.1,0,2.2-0.2,3.4,0.1c5.3,0.9,8.1-2.1,10.1-6.4c0.3-0.6,0.6-1.2,0.9-1.7c0.4-0.6,1-0.6,1.5-0.3c0.6,0.3,0.4,0.8,0.3,1.2
	c-0.8,2.7-1.6,5.5-2.4,8.3c-0.4,1.3-1.5,1.2-2.5,1.2C103.9,121.2,99.6,121.2,95.2,121.2z"/>
<path class="st2" d="M325.4,78.6c2.4,0,4.6,0,7,0c0.6,0,1.4-0.2,1.5,0.8c0.1,0.7-0.6,0.9-1.1,1c-4.8,0.7-4.4,2.6-4.4,6.3
	c-0.2,9.9,0.3,19.8-0.3,29.6c-0.4,6.6-3.5,11.6-9.4,14.8c-0.8,0.4-1.8,1.5-2.6,0.1c-0.7-1.4,0.8-1.3,1.5-1.8c2.2-1.8,3.9-4,4.3-6.9
	c0.3-1.8,0.6-3.7,0.6-5.5c0.1-10.4,0.1-20.8,0.2-31.3c0-2.9-1-4.9-4.2-5.1c-0.6-0.1-1.7,0.1-1.6-1.1c0.2-1.1,1.2-0.7,1.8-0.7
	C320.9,78.5,323.2,78.6,325.4,78.6z"/>
<path class="st2" d="M399.2,99.9c0,4.8-0.1,9.7,0,14.5c0.1,3.6,0.7,4.3,4.3,4.9c0.7,0.1,1.7-0.2,1.7,0.9c0.1,1.4-1.2,0.9-1.9,0.9
	c-4.5,0.1-9.1,0.1-13.7,0c-0.7,0-1.7,0.3-1.6-0.9c0-0.9,0.8-0.8,1.5-0.9c3.9-0.7,4.1-0.9,4.1-4.8c0.1-9.6,0.1-19.1,0-28.8
	c0-4-0.2-4.2-4.2-5.3c-0.6-0.2-1.5-0.1-1.5-1c0-1.2,1-0.9,1.7-0.9c4.6,0,9.3,0,13.9,0c0.7,0,1.7-0.3,1.6,0.9c0,1-0.9,0.8-1.5,0.9
	c-4.3,1.1-4.6,1.5-4.6,5.9C399.2,90.8,399.2,95.4,399.2,99.9z"/>
<path class="st3" d="M9.5,69.4c0.8-20.1,11.6-39.7,33-53C56.7,7.6,72.5,4.8,89,7.6c26.4,4.5,47.8,23.6,54.8,50c1,3.7-0.1,6-2.9,6.8
	c-2.6,0.7-4.5-0.5-5.4-3.4c-2-7.2-4.8-14.1-9.3-20.2C112.2,22,93.4,13.2,70.1,16.2c-23.7,3-40.4,16.4-48.2,38.8
	c-7.5,21.5-3.5,41.7,11.9,59.1c9.3,10.5,21.1,16.6,34.9,18.8c3.4,0.6,5.2,2.7,4.6,5.4c-0.4,2.5-3,3.9-6.2,3.4
	c-19-3.1-34.2-12.5-45.3-28C14.1,102.7,9.4,89.9,9.5,69.4z"/>
<path class="st4" d="M38.3,104.3c-0.2-4.6,2.4-7.7,6-10c7.4-4.6,14.9-9,22.5-13.5c1.7-1,3.4-1.5,5.2-0.2c1.6,1.2,1.5,2.9,1.2,4.6
	c-1.6,9.1-3.2,18.1-4.9,27.2c-1.1,5.6-7.4,10-12.8,8.2c-6-1.9-11-5.7-15.3-10.2C38.6,108.6,38.4,106.4,38.3,104.3z"/>
<path class="st4" d="M51.5,31.3c5.4,0,9.5,2.9,11.2,7.2c3.2,8.2,6.4,16.5,9.7,24.6c0.7,1.8,1.2,3.5-0.5,5.1c-1.6,1.6-3.2,1-4.9,0.4
	c-8-2.8-16-5.6-24-8.3c-9.4-3.1-11.7-12.5-4.9-19.5c2.2-2.3,4.4-4.5,6.7-6.7C46.8,32.1,49.3,31.4,51.5,31.3z"/>
<path class="st4" d="M24.6,74.9c-0.7-4.5,0.3-9.2,5.3-12.2c2.7-1.7,5.7-2.2,8.8-1c8.7,3.2,17.4,6.5,26.1,9.8
	c1.7,0.6,3.2,1.6,3.3,3.7c0.2,2.1-1.3,2.9-2.8,3.7c-8.2,4.4-16.2,9-24.6,13.1c-6.7,3.3-14.4-1.1-15.7-8.4
	C24.8,81,24.8,78.4,24.6,74.9z"/>
<path class="st4" d="M77.9,22.3c2.8,0.3,6.4,0.6,10,1.1c7.8,1.3,11.6,9.6,7.7,16.4C91,47.6,86.4,55.3,81.8,63c-1,1.6-2,3-4.1,2.8
	c-2.1-0.2-2.9-1.8-3.4-3.6c-2.9-8.7-6-17.4-8.7-26.1C63.3,28.9,69.1,22.1,77.9,22.3z"/>
<path class="st4" d="M125.5,54.2c-0.1,5.2-3.9,9.8-9.1,10.8c-9.1,1.7-18.3,3.4-27.4,5.1c-1.7,0.3-2.9-0.3-3.9-1.6
	c-1-1.2-0.9-2.5-0.1-3.9c4.8-8.1,9.5-16.2,14.2-24.3c3.6-6.4,13.7-7.2,18.3-1.1c2.2,2.9,4.3,5.8,6.3,8.8
	C124.9,49.9,125.6,52,125.5,54.2z"/>
<path class="st4" d="M80.8,124.7c2,3.2,4.2,5.8,5.4,8.9c1.3,3.4,0.3,7.2-2.4,8.6c-3.9,2.2-8.2-0.1-8.4-4.6
	C75.4,132.8,78.2,129.1,80.8,124.7z"/>
<path class="st5" d="M283.1,136.8c0.7-1.2,0.4-2.2,0.4-3.2c0.1-1,0.1-1.6,1.3-1.6c1.1,0.1,1.1,0.7,1.1,1.5c0,2.1,0,4.3-0.1,6.4
	c0,0.6,0.3,1.5-0.6,1.6c-0.8,0.1-1.6,0.2-2.2-0.7c-1-1.5-2.1-2.7-3.4-4.4c-0.6,1.3-0.2,2.5-0.3,3.6c-0.1,0.7,0.3,1.6-1,1.6
	c-1.3,0-1.2-0.8-1.2-1.7c0-2.1,0-4.1,0-6.2c0-0.6-0.3-1.5,0.6-1.6c0.8-0.2,1.6-0.2,2.2,0.7C280.9,134.2,282,135.4,283.1,136.8z"/>
<path class="st5" d="M216.7,136.9c0,2.9-1.9,4.8-4.9,4.8c-2.8,0-5.1-2-5.2-4.6c-0.1-2.8,2.2-5,5.2-5
	C214.8,132.1,216.7,134,216.7,136.9z M212,139.9c1.5-0.3,2.4-1.3,2.5-3c0-1.7-1.1-2.7-2.7-2.7c-1.8,0-2.7,1.3-2.6,2.9
	C209.2,138.6,210,139.9,212,139.9z"/>
<path class="st5" d="M272.8,137.1c-0.1,2.9-2,4.7-5,4.6c-2.8-0.1-4.7-2-4.7-4.7c0-2.9,1.9-4.9,4.8-4.9
	C270.9,132,272.8,133.9,272.8,137.1z M268,134.1c-1.5,0.2-2.6,0.8-2.7,2.5c-0.1,1.8,0.5,3.2,2.5,3.2c1.8,0.1,2.6-1.2,2.8-2.8
	C270.8,135.3,269.7,134.4,268,134.1z"/>
<path class="st5" d="M115.8,141.3c1-2.7,2-5.3,3-8c0.3-1,0.9-1.2,1.8-1.2c1.1-0.1,1.7,0.4,2,1.5c0.7,2.2,1.6,4.3,2.4,6.5
	c0.2,0.5,0.8,1.1,0.3,1.5c-0.6,0.4-1.6,0.4-2.1-0.1c-1.7-1.7-3.2-2-5,0C117.7,141.9,116.7,141.8,115.8,141.3z M120.7,134.7
	c-0.4,1.4-1.2,2.3-0.7,3.4c0.1,0.2,1.1,0.2,1.3,0C122,137,121.1,136.1,120.7,134.7z"/>
<path class="st5" d="M158.5,141.4c1-2.6,1.8-5.2,2.8-7.7c0.3-0.9,0.7-1.6,1.9-1.7c1.3-0.1,1.7,0.7,2.1,1.7c0.8,2.1,1.6,4.1,2.4,6.2
	c0.2,0.5,0.7,1.1,0.1,1.5c-0.5,0.4-1.4,0.4-1.8,0c-1.8-1.9-3.5-2-5.4,0C160.2,141.9,159.4,141.7,158.5,141.4z M163.5,134.4
	c-1.7,3.9-1.6,3.9,1.1,3.6C164.2,137,163.9,136,163.5,134.4z"/>
<path class="st5" d="M240.1,135.7c0.4,5.5-2.4,6.3-5.4,5.9c-1.8-0.2-3.1-1.3-3.4-3.2c-0.2-1.7-0.1-3.5-0.1-5.3
	c0-0.8,0.4-1.1,1.2-1.1c0.8,0,1.2,0.2,1.2,1.1c-0.1,1.5-0.1,3,0.1,4.5c0.1,1.2,0.5,2.2,2,2.2c1.5,0,2.2-0.9,2.3-2.3
	c0.1-1.2-0.1-2.4,0.1-3.6c0.1-0.7-0.6-1.8,0.9-1.8c1.5-0.1,1.2,1.1,1.2,1.9C240.1,134.6,240.1,135.2,240.1,135.7z"/>
<path class="st5" d="M293.7,141.7c-0.6,0.1-1.7-0.2-2.6-0.8c-0.4-0.3-1-0.6-0.4-1.2c0.3-0.3,0.6-1.1,1.3-0.4
	c0.2,0.2,0.4,0.3,0.7,0.4c1,0.3,2.5,1,2.9-0.4c0.4-1.4-1.3-0.8-2-1.2c-1.3-0.6-2.9-0.8-3-2.7c-0.1-1.5,0.7-2.3,1.8-2.8
	c1.5-0.7,3.1-0.5,4.5,0.3c0.6,0.3,0.8,0.7,0.4,1.3c-0.3,0.5-0.6,0.9-1.3,0.5c-0.5-0.3-1.1-0.4-1.6-0.6c-0.6-0.2-1.2-0.1-1.3,0.6
	c-0.2,0.6,0.4,0.7,0.9,0.8c0.4,0.2,0.9,0.3,1.3,0.4c1.6,0.4,3.1,1.1,2.7,3.2C297.5,141.2,296,141.7,293.7,141.7z"/>
<path class="st5" d="M199.2,141.7c-1.1,0.1-2.1-0.1-2.9-0.7c-0.4-0.3-1.3-0.4-0.7-1.3c0.4-0.6,0.7-1,1.5-0.4
	c0.3,0.3,0.8,0.5,1.2,0.6c0.9,0.1,2.1,0.4,2.4-0.8c0.2-1-1.1-0.7-1.7-1c-1.5-0.4-3.2-0.7-3.5-2.6c-0.2-1.2,0.3-2.2,1.3-2.8
	c1.6-1,3.1-0.8,4.8-0.1c0.5,0.3,1.4,0.4,0.8,1.3c-0.4,0.6-0.7,1.1-1.5,0.5c-0.4-0.2-0.9-0.3-1.3-0.4c-0.7-0.2-1.4-0.2-1.6,0.6
	c-0.2,0.8,0.6,0.7,1.1,0.9c0.4,0.1,0.8,0.3,1.3,0.4c1.7,0.4,3,1.2,2.6,3.2C202.5,141.3,201,141.7,199.2,141.7z"/>
<path class="st5" d="M129.6,136.8c0-0.2,0-0.4,0-0.6c0-4.3,1.2-5.2,5.4-4.1c1.7,0.4,2.7,1.7,2.5,3.5c-0.2,1.5-1,2.9-2.9,2.6
	c-1.8-0.2-2.8,0.3-2.5,2.4c0.1,0.9-0.6,1-1.3,1c-0.8,0-1.2-0.3-1.2-1.2C129.6,139.2,129.6,138.1,129.6,136.8z M132,135.4
	c-0.1,1.1,0.7,1.1,1.5,1.1c1,0,1.7-0.3,1.6-1.3c-0.1-0.9-1-0.8-1.7-0.9C132.5,134.2,131.9,134.4,132,135.4z"/>
<path class="st5" d="M108.5,141.7c-2.2-0.1-3.9-1.1-4.6-3.2c-0.7-2.1-0.3-4,1.6-5.4c1.8-1.3,3.7-1.6,5.7-0.3
	c0.6,0.4,1.5,0.8,1.1,1.7c-0.4,0.8-1.2,0.8-2.1,0.2c-1.2-0.8-2.5-0.9-3.5,0.3c-0.9,1.1-0.9,2.4-0.1,3.6c0.8,1.2,1.8,1.6,3.1,1
	c0.9-0.4,2-1.8,2.6-0.1c0.4,1.2-1.3,1.5-2.2,2.1C109.5,141.8,109,141.7,108.5,141.7z"/>
<path class="st5" d="M247,137.5c-0.4-1.1,1.2-3.5-2-3.2c-0.6,0.1-0.5-0.7-0.5-1.1c0-0.5,0.1-1,0.7-1c2,0,3.9,0,5.9,0
	c0.6,0,0.8,0.3,0.8,0.8s0.1,1.3-0.7,1.2c-2.4-0.2-1.8,1.5-1.8,2.7c0,0.7,0.1,1.5-0.1,2.2c-0.2,0.9,0.8,2.5-1.2,2.4
	c-2-0.1-0.9-1.7-1.1-2.6C246.9,138.6,247,138.1,247,137.5z"/>
<path class="st5" d="M150.8,137.5c-0.5-1,1.2-3.4-1.9-3.3c-0.6,0-0.5-0.6-0.6-1.1c-0.1-0.7,0.3-1,1-1c1.8,0,3.7,0,5.6,0
	c0.6,0,0.8,0.3,0.8,0.8c0,0.5,0.2,1.3-0.6,1.3c-2.6-0.2-1.8,1.6-1.9,2.9c-0.1,1,0,1.8,0,2.8c0,0.8,0.2,1.7-1.2,1.7
	c-1.3,0-1.2-0.8-1.2-1.7C150.8,139.2,150.8,138.5,150.8,137.5z"/>
<path class="st5" d="M174.5,135.9c0,2-0.7,4.6,2.9,3.9c0.6-0.1,0.7,0.3,0.8,0.9c0.1,0.8-0.3,1-1,0.9c-1.2-0.1-2.4-0.1-3.6,0
	c-1.3,0.1-1.6-0.6-1.5-1.7c0.1-2,0-3.9,0.1-5.8c0-0.8-0.5-2,1.1-2c1.8-0.1,1.2,1.2,1.3,2.1C174.5,134.8,174.5,135.3,174.5,135.9z"/>
<path class="st5" d="M224.1,141.6c-2.4,0.7-3.1-0.5-2.8-3.1c0.2-1.7,0.1-3.5,0.1-5.3c0-0.8,0.3-1.2,1.1-1.2c1-0.1,1.1,0.4,1.1,1.2
	c0,0.8,0,1.7,0,2.5c0.1,2.1-0.8,4.8,3,4c0.6-0.1,0.8,0.2,0.8,0.8c0.1,0.7-0.3,1-1,1C225.7,141.6,225.1,141.6,224.1,141.6z"/>
<path class="st5" d="M258.6,136.8c0,1.2,0,2.4,0,3.6c0,0.8-0.3,1.1-1.2,1.2c-0.8,0-1.2-0.3-1.2-1.1c0.1-2.4,0-4.9,0-7.3
	c0-0.8,0.3-1.2,1.1-1.2c0.8,0,1.2,0.3,1.2,1.1C258.6,134.4,258.6,135.7,258.6,136.8z"/>
<path class="st5" d="M144,136.8c0,1.2,0,2.4,0,3.6c0,0.8-0.3,1.2-1.1,1.2c-0.8,0-1.2-0.3-1.1-1.1c0-2.4,0-4.8,0-7.2
	c0-0.8,0.3-1.2,1.2-1.2c0.9,0,1.1,0.4,1.1,1.2C144,134.4,144,135.7,144,136.8z"/>
<path class="st0" d="M253.3,101.7c0.1,3.5-0.7,7.2-2.2,10.8c-3.8,9.2-16.5,9.1-21.9,3.3c-5.3-5.7-6.7-12.5-6.1-19.9
	c0.3-3.9,1.4-7.6,3.9-10.9c6.2-8,18.2-6.1,23,2.4C252.5,91.7,253.4,96.4,253.3,101.7z"/>
<path class="st6" d="M212,139.9c-2.1-0.1-2.9-1.3-3-2.9c-0.1-1.6,0.8-2.9,2.6-2.9c1.7,0,2.8,1,2.7,2.7
	C214.5,138.6,213.6,139.6,212,139.9z"/>
<path class="st6" d="M268,134.1c1.7,0.3,2.8,1.2,2.6,3c-0.1,1.6-1,2.9-2.8,2.8c-2-0.1-2.6-1.5-2.5-3.2
	C265.4,134.8,266.5,134.3,268,134.1z"/>
<path class="st6" d="M120.7,134.7c0.4,1.3,1.3,2.2,0.6,3.4c-0.1,0.2-1.2,0.2-1.3,0C119.4,137,120.3,136.1,120.7,134.7z"/>
<path class="st6" d="M163.5,134.4c0.5,1.6,0.8,2.6,1.1,3.6C161.8,138.3,161.8,138.2,163.5,134.4z"/>
<path class="st6" d="M132,135.4c-0.2-1.1,0.4-1.2,1.3-1.2c0.7,0.1,1.7-0.1,1.7,0.9c0.1,1-0.7,1.3-1.6,1.3
	C132.8,136.5,132,136.6,132,135.4z"/>
</svg>
