<svg width="15" height="15" viewBox="0 0 15 15" fill="none" xmlns="http://www.w3.org/2000/svg">
<g clip-path="url(#clip0_19_23)">
<path d="M7.49999 7.51904C3.54707 7.51904 0.331024 10.7351 0.331024 14.688C0.331024 14.8601 0.470673 14.9997 0.642729 14.9997C0.814784 14.9997 0.954433 14.8601 0.954433 14.688C0.954433 11.0786 3.8906 8.14242 7.50002 8.14242C11.1094 8.14242 14.0456 11.0786 14.0456 14.688C14.0456 14.8601 14.1853 14.9997 14.3573 14.9997C14.5294 14.9997 14.669 14.8601 14.669 14.688C14.669 10.7345 11.4529 7.51904 7.49999 7.51904Z" fill="#FEE600"/>
<path d="M7.49998 0C5.60986 0 4.07135 1.53789 4.07135 3.42863C4.07135 5.31937 5.60988 6.85726 7.49998 6.85726C9.39008 6.85726 10.9286 5.31937 10.9286 3.42863C10.9286 1.53789 9.39011 0 7.49998 0ZM7.49998 6.23388C5.95335 6.23388 4.69473 4.97526 4.69473 3.42863C4.69473 1.882 5.95335 0.623379 7.49998 0.623379C9.04661 0.623379 10.3052 1.882 10.3052 3.42863C10.3052 4.97526 9.04661 6.23388 7.49998 6.23388Z" fill="#FEE600"/>
</g>
<defs>
<clipPath id="clip0_19_23">
<rect width="15" height="15" fill="white"/>
</clipPath>
</defs>
</svg>
